<svg id="visual" viewBox="0 0 900 600" width="900" height="600" xmlns="http://www.w3.org/2000/svg" xmlns:xlink="http://www.w3.org/1999/xlink" version="1.1"><rect x="0" y="0" width="900" height="600" fill="#FA7268"></rect><path d="M0 207L30 198.3C60 189.7 120 172.3 180 187.3C240 202.3 300 249.7 360 261C420 272.3 480 247.7 540 227C600 206.3 660 189.7 720 202.7C780 215.7 840 258.3 870 279.7L900 301L900 601L870 601C840 601 780 601 720 601C660 601 600 601 540 601C480 601 420 601 360 601C300 601 240 601 180 601C120 601 60 601 30 601L0 601Z" fill="#c62368"></path><path d="M0 342L30 323.7C60 305.3 120 268.7 180 264C240 259.3 300 286.7 360 300.7C420 314.7 480 315.3 540 315.8C600 316.3 660 316.7 720 303.7C780 290.7 840 264.3 870 251.2L900 238L900 601L870 601C840 601 780 601 720 601C660 601 600 601 540 601C480 601 420 601 360 601C300 601 240 601 180 601C120 601 60 601 30 601L0 601Z" fill="#d03267"></path><path d="M0 282L30 284C60 286 120 290 180 308.8C240 327.7 300 361.3 360 361.7C420 362 480 329 540 309.7C600 290.3 660 284.7 720 280.8C780 277 840 275 870 274L900 273L900 601L870 601C840 601 780 601 720 601C660 601 600 601 540 601C480 601 420 601 360 601C300 601 240 601 180 601C120 601 60 601 30 601L0 601Z" fill="#da3f67"></path><path d="M0 321L30 335.5C60 350 120 379 180 388.5C240 398 300 388 360 384C420 380 480 382 540 384.7C600 387.3 660 390.7 720 387C780 383.3 840 372.7 870 367.3L900 362L900 601L870 601C840 601 780 601 720 601C660 601 600 601 540 601C480 601 420 601 360 601C300 601 240 601 180 601C120 601 60 601 30 601L0 601Z" fill="#e34c67"></path><path d="M0 436L30 430.2C60 424.3 120 412.7 180 419.7C240 426.7 300 452.3 360 449.3C420 446.3 480 414.7 540 395.7C600 376.7 660 370.3 720 385.8C780 401.3 840 438.7 870 457.3L900 476L900 601L870 601C840 601 780 601 720 601C660 601 600 601 540 601C480 601 420 601 360 601C300 601 240 601 180 601C120 601 60 601 30 601L0 601Z" fill="#eb5967"></path><path d="M0 510L30 496.7C60 483.3 120 456.7 180 452.8C240 449 300 468 360 468.3C420 468.7 480 450.3 540 446.8C600 443.3 660 454.7 720 461.2C780 467.7 840 469.3 870 470.2L900 471L900 601L870 601C840 601 780 601 720 601C660 601 600 601 540 601C480 601 420 601 360 601C300 601 240 601 180 601C120 601 60 601 30 601L0 601Z" fill="#f36567"></path><path d="M0 539L30 534.8C60 530.7 120 522.3 180 516.8C240 511.3 300 508.7 360 511.3C420 514 480 522 540 526.2C600 530.3 660 530.7 720 527C780 523.3 840 515.7 870 511.8L900 508L900 601L870 601C840 601 780 601 720 601C660 601 600 601 540 601C480 601 420 601 360 601C300 601 240 601 180 601C120 601 60 601 30 601L0 601Z" fill="#fa7268"></path></svg>