<svg width="128" height="128" viewBox="0 0 128 128" fill="none" xmlns="http://www.w3.org/2000/svg">
<rect width="128" height="128" fill="#E5E5E5"/>
<circle cx="64" cy="64" r="64" fill="#FF5151"/>
<line x1="20.8498" y1="63.7639" x2="68.8498" y2="96.7639" stroke="white" stroke-width="3"/>
<line x1="68.1158" y1="95.7883" x2="105.116" y2="68.7883" stroke="white" stroke-width="3"/>
<line x1="104.702" y1="70.7516" x2="82.7019" y2="32.7516" stroke="white" stroke-width="3"/>
<line x1="68.5347" y1="95.6795" x2="82.5347" y2="31.6795" stroke="white" stroke-width="3"/>
<line x1="18.0841" y1="63.5024" x2="107.084" y2="68.5024" stroke="white" stroke-width="3"/>
<circle r="15" transform="matrix(1 0 0 -1 20 64)" fill="white"/>
<circle r="12.2727" transform="matrix(1 0 0 -1 20 64)" fill="#FF5151"/>
<circle r="15" transform="matrix(1 0 0 -1 106 69)" fill="white"/>
<circle r="12.2727" transform="matrix(1 0 0 -1 106 69)" fill="#FF5151"/>
<circle r="15" transform="matrix(1 0 0 -1 69 96)" fill="white"/>
<circle r="12.2727" transform="matrix(1 0 0 -1 69 96)" fill="#FF5151"/>
<circle r="15" transform="matrix(1 0 0 -1 84 34)" fill="white"/>
<circle r="12.2727" transform="matrix(1 0 0 -1 84 34)" fill="#FF5151"/>
</svg>
