<svg id="visual" viewBox="0 0 1920 100" width="1920" height="100" xmlns="http://www.w3.org/2000/svg" xmlns:xlink="http://www.w3.org/1999/xlink" version="1.1"><path d="M0 20L13.8 19.3C27.7 18.7 55.3 17.3 83.2 17.2C111 17 139 18 166.8 17.5C194.7 17 222.3 15 250.2 14C278 13 306 13 333.8 12.5C361.7 12 389.3 11 417.2 12.3C445 13.7 473 17.3 500.8 20.3C528.7 23.3 556.3 25.7 584.2 25.8C612 26 640 24 667.8 23.3C695.7 22.7 723.3 23.3 751.2 22.7C779 22 807 20 834.8 19.2C862.7 18.3 890.3 18.7 918.2 18.8C946 19 974 19 1001.8 20.3C1029.7 21.7 1057.3 24.3 1085.2 25.5C1113 26.7 1141 26.3 1168.8 27.2C1196.7 28 1224.3 30 1252.2 28.7C1280 27.3 1308 22.7 1335.8 18C1363.7 13.3 1391.3 8.7 1419.2 10.5C1447 12.3 1475 20.7 1502.8 23C1530.7 25.3 1558.3 21.7 1586.2 17.2C1614 12.7 1642 7.3 1669.8 4.3C1697.7 1.3 1725.3 0.7 1753.2 2.7C1781 4.7 1809 9.3 1836.8 9.3C1864.7 9.3 1892.3 4.7 1906.2 2.3L1920 0L1920 101L1906.2 101C1892.3 101 1864.7 101 1836.8 101C1809 101 1781 101 1753.2 101C1725.3 101 1697.7 101 1669.8 101C1642 101 1614 101 1586.2 101C1558.3 101 1530.7 101 1502.8 101C1475 101 1447 101 1419.2 101C1391.3 101 1363.7 101 1335.8 101C1308 101 1280 101 1252.2 101C1224.3 101 1196.7 101 1168.8 101C1141 101 1113 101 1085.2 101C1057.3 101 1029.7 101 1001.8 101C974 101 946 101 918.2 101C890.3 101 862.7 101 834.8 101C807 101 779 101 751.2 101C723.3 101 695.7 101 667.8 101C640 101 612 101 584.2 101C556.3 101 528.7 101 500.8 101C473 101 445 101 417.2 101C389.3 101 361.7 101 333.8 101C306 101 278 101 250.2 101C222.3 101 194.7 101 166.8 101C139 101 111 101 83.2 101C55.3 101 27.7 101 13.8 101L0 101Z" fill="#23a59f"></path><path d="M0 35L13.8 34C27.7 33 55.3 31 83.2 28C111 25 139 21 166.8 20.5C194.7 20 222.3 23 250.2 26.3C278 29.7 306 33.3 333.8 31.7C361.7 30 389.3 23 417.2 20.7C445 18.3 473 20.7 500.8 22.8C528.7 25 556.3 27 584.2 31.2C612 35.3 640 41.7 667.8 43.7C695.7 45.7 723.3 43.3 751.2 40.8C779 38.3 807 35.7 834.8 36.8C862.7 38 890.3 43 918.2 42C946 41 974 34 1001.8 29.8C1029.7 25.7 1057.3 24.3 1085.2 24C1113 23.7 1141 24.3 1168.8 27.7C1196.7 31 1224.3 37 1252.2 40.5C1280 44 1308 45 1335.8 43.2C1363.7 41.3 1391.3 36.7 1419.2 37C1447 37.3 1475 42.7 1502.8 42.2C1530.7 41.7 1558.3 35.3 1586.2 32.7C1614 30 1642 31 1669.8 29C1697.7 27 1725.3 22 1753.2 19.3C1781 16.7 1809 16.3 1836.8 21C1864.7 25.7 1892.3 35.3 1906.2 40.2L1920 45L1920 101L1906.2 101C1892.3 101 1864.7 101 1836.8 101C1809 101 1781 101 1753.2 101C1725.3 101 1697.7 101 1669.8 101C1642 101 1614 101 1586.2 101C1558.3 101 1530.7 101 1502.8 101C1475 101 1447 101 1419.2 101C1391.3 101 1363.7 101 1335.8 101C1308 101 1280 101 1252.2 101C1224.3 101 1196.7 101 1168.8 101C1141 101 1113 101 1085.2 101C1057.3 101 1029.7 101 1001.8 101C974 101 946 101 918.2 101C890.3 101 862.7 101 834.8 101C807 101 779 101 751.2 101C723.3 101 695.7 101 667.8 101C640 101 612 101 584.2 101C556.3 101 528.7 101 500.8 101C473 101 445 101 417.2 101C389.3 101 361.7 101 333.8 101C306 101 278 101 250.2 101C222.3 101 194.7 101 166.8 101C139 101 111 101 83.2 101C55.3 101 27.7 101 13.8 101L0 101Z" fill="#008fb0"></path><path d="M0 52L13.8 54C27.7 56 55.3 60 83.2 60C111 60 139 56 166.8 53.7C194.7 51.3 222.3 50.7 250.2 50.7C278 50.7 306 51.3 333.8 50C361.7 48.7 389.3 45.3 417.2 46.2C445 47 473 52 500.8 53.2C528.7 54.3 556.3 51.7 584.2 49.3C612 47 640 45 667.8 46.2C695.7 47.3 723.3 51.7 751.2 55.2C779 58.7 807 61.3 834.8 62.5C862.7 63.7 890.3 63.3 918.2 58.5C946 53.7 974 44.3 1001.8 42.3C1029.7 40.3 1057.3 45.7 1085.2 46.5C1113 47.3 1141 43.7 1168.8 41.7C1196.7 39.7 1224.3 39.3 1252.2 41.3C1280 43.3 1308 47.7 1335.8 47.3C1363.7 47 1391.3 42 1419.2 42C1447 42 1475 47 1502.8 46.3C1530.7 45.7 1558.3 39.3 1586.2 36.5C1614 33.7 1642 34.3 1669.8 37.8C1697.7 41.3 1725.3 47.7 1753.2 51C1781 54.3 1809 54.7 1836.8 51.3C1864.7 48 1892.3 41 1906.2 37.5L1920 34L1920 101L1906.2 101C1892.3 101 1864.7 101 1836.8 101C1809 101 1781 101 1753.2 101C1725.3 101 1697.7 101 1669.8 101C1642 101 1614 101 1586.2 101C1558.3 101 1530.7 101 1502.8 101C1475 101 1447 101 1419.2 101C1391.3 101 1363.7 101 1335.8 101C1308 101 1280 101 1252.2 101C1224.3 101 1196.7 101 1168.8 101C1141 101 1113 101 1085.2 101C1057.3 101 1029.7 101 1001.8 101C974 101 946 101 918.2 101C890.3 101 862.7 101 834.8 101C807 101 779 101 751.2 101C723.3 101 695.7 101 667.8 101C640 101 612 101 584.2 101C556.3 101 528.7 101 500.8 101C473 101 445 101 417.2 101C389.3 101 361.7 101 333.8 101C306 101 278 101 250.2 101C222.3 101 194.7 101 166.8 101C139 101 111 101 83.2 101C55.3 101 27.7 101 13.8 101L0 101Z" fill="#0074b1"></path><path d="M0 54L13.8 58C27.7 62 55.3 70 83.2 73.3C111 76.7 139 75.3 166.8 75C194.7 74.7 222.3 75.3 250.2 76.2C278 77 306 78 333.8 75.3C361.7 72.7 389.3 66.3 417.2 61.7C445 57 473 54 500.8 55.3C528.7 56.7 556.3 62.3 584.2 64.2C612 66 640 64 667.8 64.2C695.7 64.3 723.3 66.7 751.2 67.2C779 67.7 807 66.3 834.8 65C862.7 63.7 890.3 62.3 918.2 62.3C946 62.3 974 63.7 1001.8 66.5C1029.7 69.3 1057.3 73.7 1085.2 72.5C1113 71.3 1141 64.7 1168.8 63.5C1196.7 62.3 1224.3 66.7 1252.2 65.8C1280 65 1308 59 1335.8 56.5C1363.7 54 1391.3 55 1419.2 58.3C1447 61.7 1475 67.3 1502.8 69C1530.7 70.7 1558.3 68.3 1586.2 67.5C1614 66.7 1642 67.3 1669.8 68.5C1697.7 69.7 1725.3 71.3 1753.2 72.7C1781 74 1809 75 1836.8 75C1864.7 75 1892.3 74 1906.2 73.5L1920 73L1920 101L1906.2 101C1892.3 101 1864.7 101 1836.8 101C1809 101 1781 101 1753.2 101C1725.3 101 1697.7 101 1669.8 101C1642 101 1614 101 1586.2 101C1558.3 101 1530.7 101 1502.8 101C1475 101 1447 101 1419.2 101C1391.3 101 1363.7 101 1335.8 101C1308 101 1280 101 1252.2 101C1224.3 101 1196.7 101 1168.8 101C1141 101 1113 101 1085.2 101C1057.3 101 1029.7 101 1001.8 101C974 101 946 101 918.2 101C890.3 101 862.7 101 834.8 101C807 101 779 101 751.2 101C723.3 101 695.7 101 667.8 101C640 101 612 101 584.2 101C556.3 101 528.7 101 500.8 101C473 101 445 101 417.2 101C389.3 101 361.7 101 333.8 101C306 101 278 101 250.2 101C222.3 101 194.7 101 166.8 101C139 101 111 101 83.2 101C55.3 101 27.7 101 13.8 101L0 101Z" fill="#0054a7"></path><path d="M0 88L13.8 89.5C27.7 91 55.3 94 83.2 93.3C111 92.7 139 88.3 166.8 87.8C194.7 87.3 222.3 90.7 250.2 90.3C278 90 306 86 333.8 82.5C361.7 79 389.3 76 417.2 77.7C445 79.3 473 85.7 500.8 88.2C528.7 90.7 556.3 89.3 584.2 88.8C612 88.3 640 88.7 667.8 89.2C695.7 89.7 723.3 90.3 751.2 91.8C779 93.3 807 95.7 834.8 94.7C862.7 93.7 890.3 89.3 918.2 87.5C946 85.7 974 86.3 1001.8 84.7C1029.7 83 1057.3 79 1085.2 76.8C1113 74.7 1141 74.3 1168.8 73C1196.7 71.7 1224.3 69.3 1252.2 69.5C1280 69.7 1308 72.3 1335.8 77C1363.7 81.7 1391.3 88.3 1419.2 91C1447 93.7 1475 92.3 1502.8 92C1530.7 91.7 1558.3 92.3 1586.2 92.3C1614 92.3 1642 91.7 1669.8 88.7C1697.7 85.7 1725.3 80.3 1753.2 76.2C1781 72 1809 69 1836.8 68.3C1864.7 67.7 1892.3 69.3 1906.2 70.2L1920 71L1920 101L1906.2 101C1892.3 101 1864.7 101 1836.8 101C1809 101 1781 101 1753.2 101C1725.3 101 1697.7 101 1669.8 101C1642 101 1614 101 1586.2 101C1558.3 101 1530.7 101 1502.8 101C1475 101 1447 101 1419.2 101C1391.3 101 1363.7 101 1335.8 101C1308 101 1280 101 1252.2 101C1224.3 101 1196.7 101 1168.8 101C1141 101 1113 101 1085.2 101C1057.3 101 1029.7 101 1001.8 101C974 101 946 101 918.2 101C890.3 101 862.7 101 834.8 101C807 101 779 101 751.2 101C723.3 101 695.7 101 667.8 101C640 101 612 101 584.2 101C556.3 101 528.7 101 500.8 101C473 101 445 101 417.2 101C389.3 101 361.7 101 333.8 101C306 101 278 101 250.2 101C222.3 101 194.7 101 166.8 101C139 101 111 101 83.2 101C55.3 101 27.7 101 13.8 101L0 101Z" fill="#2b2e91"></path></svg>